<?xml version="1.0" encoding="utf-8"?>
<!-- Generator: Adobe Illustrator 22.1.0, SVG Export Plug-In . SVG Version: 6.00 Build 0)  -->
<svg version="1.1" id="Ebene_1" xmlns="http://www.w3.org/2000/svg" xmlns:xlink="http://www.w3.org/1999/xlink" x="0px" y="0px"
	 viewBox="0 0 450.7 207.7" style="enable-background:new 0 0 450.7 207.7;" xml:space="preserve">
<style type="text/css">
	.st0{fill:#00578A;}
	.st1{fill:#AF0078;}
</style>
<g>
	<g>
		<g>
			<path class="st0" d="M186.3,43.3l0,0.3c0,0.5-2,48.7-35.1,73.1c-13.7,10-28,13.7-39.3,10.1c-6.2-2-10.9-6.1-12.5-10.9
				c-1.7-5.1,1.1-8.8,2.3-9.8c1-0.8,2.4-1.3,2.5-1.4l0.3-0.1l-0.6-1.8l-0.3,0.1c0,0-1.7,0.6-3.1,1.7c-2.2,1.8-4.7,6.4-2.9,11.9
				c1.8,5.4,6.9,10,13.8,12.2c3,1,6.2,1.4,9.6,1.4c10,0,20.9-4.1,31.4-11.8c33.8-24.9,35.9-74.1,35.9-74.6l0-0.3L186.3,43.3z"/>
			<path class="st0" d="M121,1.7l-0.2-0.2l-1.4,1.3l0.2,0.2c0.3,0.4,33.1,35.9,26.8,76.5c-2.6,16.8-10.1,29.5-20.6,34.9
				c-5.8,3-12,3.4-16.6,1.1c-4.8-2.4-5.5-7-5.3-8.5c0.1-1.4,0.8-2.8,0.8-2.8l0.1-0.3l-1.7-0.8l-0.1,0.3c0,0.1-0.8,1.7-1,3.4
				c-0.3,2.8,1.2,7.9,6.4,10.5c2.2,1.1,4.7,1.7,7.5,1.7c3.6,0,7.3-1,10.9-2.8c11.1-5.7,19-19,21.7-36.4C154.7,38.3,121.3,2,121,1.7z
				"/>
			<path class="st0" d="M118.3,55.3C93.5,21.6,44.2,19.4,43.7,19.4l-0.3,0l-0.1,1.9l0.3,0c0.5,0,48.8,2.1,73.1,35.1
				c10,13.7,13.7,28,10.1,39.3c-2,6.2-6.1,10.9-10.9,12.5c-5.1,1.7-8.8-1.1-9.8-2.3c-0.9-1.1-1.4-2.5-1.4-2.5l-0.1-0.3l-1.8,0.6
				l0.1,0.3c0.1,0.2,0.6,1.8,1.7,3.1c1.4,1.8,4.5,3.5,8.1,3.5c1.3,0,2.5-0.2,3.8-0.6c5.4-1.8,10-6.9,12.2-13.8
				C132.5,84.5,128.7,69.5,118.3,55.3z"/>
			<path class="st0" d="M110.1,91.1c-1.8-5.4-6.9-10-13.8-12.2c-11.9-3.8-26.9,0-41,10.4c-33.8,24.9-35.9,74.1-35.9,74.6l0,0.3
				l1.9,0.1l0-0.3c0-0.5,1.9-48.7,35.1-73.1c13.7-10,28-13.7,39.3-10.1c6.2,2,10.9,6.1,12.5,10.9c1.7,5.1-1.1,8.8-2.3,9.8
				c-1.1,0.9-2.5,1.4-2.5,1.4l-0.3,0.1l0.6,1.8l0.3-0.1c0.2-0.1,1.8-0.6,3.1-1.7C109.4,101.2,112,96.6,110.1,91.1z"/>
			<path class="st0" d="M99.3,90.3c-5.1-2.6-12-2.2-18.3,1.1c-11.1,5.7-19,19-21.7,36.4c-6.3,41.5,27,77.8,27.3,78.1l0.2,0.2
				l1.4-1.3l-0.2-0.2c-0.3-0.4-33.1-35.9-26.8-76.5c2.6-16.8,10.1-29.5,20.6-34.9c5.8-3,12-3.4,16.6-1.1c4.8,2.4,5.5,7,5.3,8.5
				c-0.1,1.4-0.8,2.8-0.8,2.8l-0.2,0.3l1.8,0.9l0.1-0.3c0.1-0.2,0.8-1.7,1-3.4C106,98,104.5,93,99.3,90.3z"/>
			<path class="st0" d="M164,186.3c-0.5,0-48.7-1.9-73.1-35.1c-10-13.7-13.7-28-10.1-39.3c2-6.2,6.1-10.9,10.9-12.5
				c5.1-1.7,8.8,1.1,9.8,2.3c0.9,1.1,1.4,2.5,1.4,2.5l0.1,0.3l1.8-0.6l-0.1-0.3c-0.1-0.2-0.6-1.8-1.7-3.1c-1.8-2.2-6.4-4.7-11.9-2.9
				c-5.4,1.8-10,6.9-12.2,13.8c-3.8,11.9,0,26.9,10.4,41c24.9,33.8,74.1,35.9,74.6,35.9l0.3,0l0.1-1.9L164,186.3z"/>
			<path class="st0" d="M127.5,4.7l0.3-0.1l-0.4-1.9l-0.3,0.1c-0.4,0.1-37.7,8.6-60.5,39.9c-16.4,22.5-21.3,57.5,1.9,77.8
				c7.4,6.5,16.1,10,24.7,10c0,0,0,0,0,0c3,0,6-0.5,8.8-1.4c7.9-2.5,13.4-8.2,15.2-15.6c1.4-5.8-0.9-10.2-3.5-12.5
				c-2.2-1.9-4.9-2.6-7.2-1.7c-3.4,1.3-3.7,4-3.7,4.3l0,0.3l1.9,0.1l0-0.3c0-0.1,0.2-1.7,2.5-2.6c1.6-0.6,3.5-0.1,5.2,1.4
				c2.2,1.9,4,5.6,2.9,10.6c-1.6,6.7-6.7,11.9-13.9,14.2c-10.2,3.2-22,0.1-31.6-8.3c-22.3-19.6-17.5-53.3-1.6-75.2
				C90.5,13.2,127.1,4.8,127.5,4.7z"/>
			<path class="st0" d="M142.2,111.1c-3-13.1-11.2-23.1-22-26.7c-7.9-2.6-15.7-1.3-21.5,3.7c-4.5,3.9-5.3,8.8-4.5,12.1
				c0.7,2.9,2.5,5,4.8,5.6c3.6,0.9,5.5-1.2,5.5-1.3l0.2-0.2l-1.5-1.2l-0.2,0.2c0,0.1-1.2,1.3-3.6,0.7c-1.6-0.4-2.9-2-3.4-4.1
				c-0.6-2.8,0-6.9,3.9-10.2c5.3-4.5,12.4-5.7,19.6-3.3c10.1,3.4,17.9,12.8,20.7,25.3c6.6,29-17.2,53.4-42.9,61.8
				c-36,11.7-70.7-3.1-71.1-3.2l-0.3-0.1l-0.8,1.8l0.3,0.1c0.2,0.1,18.3,7.9,42.2,7.9c0,0,0,0,0,0c10.6,0,20.8-1.6,30.2-4.6
				C124.6,166.5,149.1,141.1,142.2,111.1z"/>
			<path class="st0" d="M207.1,94.7c-0.2-0.3-19.9-33.3-56.7-45.2C123.9,40.9,89.1,47,77,75.4c-5.3,12.4-4.5,25.3,2.1,34.5
				c4.4,6.2,10.9,9.7,17.9,9.7c0.6,0,1.1,0,1.7-0.1c5.9-0.5,9.5-4,10.8-7.2c1.2-2.7,0.9-5.5-0.6-7.3c-2.3-2.8-4.9-2.3-5.2-2.2
				l-0.3,0.1l0.5,1.9l0.3-0.1c0,0,1.7-0.4,3.3,1.5c1.1,1.3,1.2,3.3,0.3,5.3c-1.1,2.6-4.1,5.6-9.2,6c-6.9,0.5-13.4-2.7-17.8-8.8
				c-6.2-8.7-6.9-20.9-1.9-32.6c11.7-27.3,45.3-33.1,71-24.8c36.3,11.8,55.4,44,55.6,44.4l0.2,0.3l1.7-1L207.1,94.7z"/>
		</g>
		<path class="st1" d="M204.9,119.4l-0.2,0.2c-0.1,0.1-14.5,13.3-35.3,21.4c0.4-3.3,0.5-6.5,0.5-9.7c0-27.9-16.6-59-47.3-61.8
			c-5.2-0.5-10.2-0.1-14.9,1.2c-7-5.8-16.6-9.7-27.9-11.4c-24.3-3.7-46.9,6.2-61.6,15.3c-2.1-13.8-1.2-23.8-1.2-23.9l0-0.3L15,50.2
			l0,0.3c0,0.1-1,10.7,1.4,25.2c-9.2,5.9-14.6,10.9-14.7,11l-0.2,0.2l1.3,1.4L3,88.1c0.1,0,5.2-4.8,13.7-10.3
			c2.9,16.3,8.8,30.6,17.5,42.6C46.9,137.8,67,149,85.5,149c8.3,0,16.2-2.2,23.4-6.4l0,0c5.6,2.7,12,4.7,19,5.8
			c12.4,1.9,25.6,0.4,39.1-4.4c-4.5,31.5-23.9,53.7-24.1,53.9l-0.2,0.2l1.4,1.3l0.2-0.2c0.2-0.2,20.4-23.2,24.7-56
			c21.8-8.3,36.8-22.1,36.9-22.2l0.2-0.2L204.9,119.4z M102.5,107.9c-0.9,1.4-2.8,2.1-5,1.9c-1.6-0.1-3.3-0.8-4.7-1.9
			c2.6-3.7,6.5-4.2,7.8-4.1c0.6,0.1,1.3,0.2,1.9,0.4c0.2,0.1,0.3,0.2,0.5,0.3c0.1,0.1,0.2,0.2,0.2,0.3
			C103.4,105.9,103.2,106.9,102.5,107.9z M116.5,95.9c-0.3,1-0.6,1.8-0.9,2.5c-2.4,4.8-7,5.5-8.5,5.3c-1.3-0.1-2.6-0.7-2.8-0.8
			c-0.4-0.2-1.6-1-1.8-3.2c-0.1-1.7,1-3.4,2.9-4.5c2.5-1.5,6.6-2.1,10.9,0.5C116.3,95.8,116.4,95.9,116.5,95.9
			C116.5,95.9,116.5,95.9,116.5,95.9z M116.9,93.9c-4.9-2.8-9.7-2-12.6-0.3c-2.5,1.5-4,3.9-3.8,6.3c0,0.8,0.2,1.5,0.5,2.1
			c-0.1,0-0.1,0-0.2,0c-2.8-0.3-6.8,1.1-9.4,4.7c-1-1-1.8-2.3-2.3-3.7c-2.7-6.4-1.6-13.6,2.9-19.7c3.6-4.9,8.9-8.5,15.3-10.5
			c3.1,2.7,5.5,5.7,7.2,9C116.5,85.8,117.4,90.1,116.9,93.9z M90.4,82.2c-4.9,6.7-6,14.5-3.1,21.6c0.7,1.8,1.8,3.4,3.1,4.6
			c-2.5,5.1-2.1,11.9,1.2,18.3c3,5.9,8.3,11,15.3,14.8c-25.3,14.2-55.4-0.8-71-22.3c-8.7-12-14.5-26.3-17.3-42.6
			c14.6-9.1,36.9-19.1,61-15.4c10.4,1.6,19.3,5.1,26,10.2C99.2,73.6,94,77.3,90.4,82.2z M91.9,109.7c1.7,1.2,3.6,2,5.5,2.1
			c2.9,0.3,5.5-0.8,6.8-2.8c0.8-1.2,1.1-2.4,1-3.6c0.6,0.2,1.1,0.3,1.6,0.3c0.2,0,0.4,0,0.7,0c3.3,0,7.6-2,9.8-6.4
			c0.3-0.6,0.6-1.3,0.8-2.2c4.8,3.8,7.4,9.5,7.3,16.3c-0.1,10.3-6.3,20.4-16.7,27c-7.1-3.7-12.5-8.7-15.5-14.6
			C90.3,120.2,89.8,114.2,91.9,109.7z M127.4,113.4c0-7.6-3.1-14.3-8.7-18.3c0.8-4.4-0.1-9.4-2.5-14.1c-1.6-3.1-3.9-6-6.7-8.7
			c4.1-1,8.4-1.2,12.9-0.8c29.6,2.7,45.5,32.9,45.5,59.9c0,3.4-0.2,7-0.6,10.5c-13.6,5-26.8,6.5-39.1,4.6c-6.4-1-12.2-2.7-17.4-5.1
			C121.1,134.4,127.3,124,127.4,113.4z"/>
	</g>
	<g>
		<path class="st0" d="M257.9,128.8l-1.1-14.3c-0.1-1.2-0.1-3.2-0.1-3.3c-0.1,0.2-0.4,1.8-0.8,3l-4.2,14.5h-2l-3.9-13.8
			c-0.6-1.9-0.9-3.4-1-3.7c0,0.3-0.1,2.6-0.2,3.7l-1.1,13.9h-2.2l1.7-19.5h3.4l3.6,12.7c0.5,1.8,0.7,3.2,0.8,3.4
			c0-0.1,0.3-1.6,0.7-3.2l3.7-13h3.4l1.7,19.5H257.9z"/>
		<path class="st0" d="M274.4,129.4c-1-0.3-1.7-1.1-1.9-2.1c-1.4,1.4-2.5,1.9-4.1,1.9c-3.5,0-4.5-2.1-4.5-4c0-3.2,2.8-5.1,7.5-5.1
			c0.6,0,1,0,1,0v-1c0-1.2-0.1-1.8-0.5-2.2c-0.5-0.5-1-0.8-1.9-0.8c-1.6,0-3.6,0.9-4.5,1.7l-1.1-1.6c1.9-1.3,3.9-1.9,5.9-1.9
			c2,0,3.3,0.8,3.9,2.2c0.3,0.8,0.3,1.8,0.3,3.1l-0.1,4.7c-0.1,2.3,0.1,2.9,1.1,3.5L274.4,129.4z M271.1,121.6
			c-3.6,0-4.9,1.2-4.9,3.4c0,1.7,0.8,2.6,2.4,2.6c1.4,0,2.8-0.9,3.4-2.2l0.1-3.7C271.9,121.6,271.5,121.6,271.1,121.6z"/>
		<path class="st0" d="M285,116.4h-3v9.1c0,1.6,0.4,2.1,1.8,2.1c0.6,0,1-0.1,1.4-0.3l0.3,1.4c-0.7,0.4-1.5,0.6-2.5,0.6
			c-0.7,0-1.3-0.1-1.8-0.4c-1-0.5-1.4-1.4-1.4-2.8v-9.7H278v-1.7h1.8c0-1.4,0.2-3.6,0.2-3.6l2.3-0.5c0,0-0.3,2.2-0.3,4.1h3.6
			L285,116.4z"/>
		<path class="st0" d="M297.5,128.8v-9.8c0-1.1-0.1-1.7-0.5-2.1c-0.3-0.3-0.9-0.6-1.6-0.6c-1.4,0-2.9,0.9-4.1,2.4v10.1h-2.2v-17.4
			c0-1.8-0.4-2.9-0.4-2.9l2.2-0.4c0,0,0.4,1.2,0.4,3.4v3.3c0,0.9-0.1,1.9-0.1,1.9c1.3-1.2,2.9-2.2,4.7-2.2c1.7,0,3.2,0.9,3.6,2.2
			c0.2,0.6,0.2,1,0.2,2v10.1H297.5z"/>
		<path class="st0" d="M306,122.1v0.3c0,1.3,0.2,2.4,0.7,3.1c0.8,1.2,2.1,1.7,3.5,1.7c1.4,0,2.5-0.4,3.5-1.3l0.9,1.4
			c-1.3,1.1-3,1.8-4.8,1.8c-3.9,0-6.3-2.8-6.3-7.5c0-2.4,0.5-3.9,1.7-5.3c1.1-1.3,2.5-2,4.2-2c1.5,0,2.9,0.5,3.8,1.5
			c1.2,1.3,1.6,2.6,1.6,6v0.3H306z M311.9,117.3c-0.5-0.8-1.5-1.2-2.6-1.2c-2,0-3.2,1.5-3.3,4.4h6.5
			C312.5,118.9,312.3,118,311.9,117.3z"/>
		<path class="st0" d="M334.5,128.8v-10.5c0-1.4-0.6-2.1-1.8-2.1c-1.3,0-2.3,0.8-3.8,2.2v10.3h-2.2v-10.1c0-0.9-0.1-1.4-0.4-1.8
			c-0.3-0.4-0.8-0.6-1.4-0.6c-1.1,0-2.1,0.5-3.6,1.9v10.6h-2.1v-11c0-2-0.5-3-0.5-3l2.2-0.5c0,0,0.5,1.1,0.5,2.1
			c0.9-1.1,2.7-2.1,4.1-2.1c1.4,0,2.8,0.9,3.3,2.4c1.4-1.4,3.1-2.4,4.5-2.4c2.1,0,3.6,1.6,3.6,3.8v10.7H334.5z"/>
		<path class="st0" d="M351.7,129.4c-1-0.3-1.7-1.1-1.9-2.1c-1.4,1.4-2.5,1.9-4.1,1.9c-3.5,0-4.5-2.1-4.5-4c0-3.2,2.8-5.1,7.5-5.1
			c0.6,0,1,0,1,0v-1c0-1.2-0.1-1.8-0.5-2.2c-0.5-0.5-1-0.8-1.9-0.8c-1.6,0-3.6,0.9-4.5,1.7l-1.1-1.6c1.9-1.3,3.9-1.9,5.9-1.9
			c2,0,3.3,0.8,3.9,2.2c0.3,0.8,0.3,1.8,0.3,3.1l-0.1,4.7c-0.1,2.3,0.1,2.9,1.1,3.5L351.7,129.4z M348.5,121.6
			c-3.6,0-4.9,1.2-4.9,3.4c0,1.7,0.8,2.6,2.4,2.6c1.4,0,2.8-0.9,3.4-2.2l0.1-3.7C349.2,121.6,348.9,121.6,348.5,121.6z"/>
		<path class="st0" d="M362.3,116.4h-3v9.1c0,1.6,0.4,2.1,1.8,2.1c0.6,0,1-0.1,1.4-0.3l0.3,1.4c-0.7,0.4-1.5,0.6-2.5,0.6
			c-0.7,0-1.3-0.1-1.8-0.4c-1-0.5-1.4-1.4-1.4-2.8v-9.7h-1.8v-1.7h1.8c0-1.4,0.2-3.6,0.2-3.6l2.3-0.5c0,0-0.3,2.2-0.3,4.1h3.6
			L362.3,116.4z"/>
		<path class="st0" d="M367.6,112c-1,0-1.7-0.8-1.7-1.7c0-1,0.8-1.8,1.7-1.8s1.7,0.8,1.7,1.7C369.3,111.3,368.5,112,367.6,112z
			 M366.4,128.8v-14.1l2.3-0.4v14.5H366.4z"/>
		<path class="st0" d="M378.5,129.2c-2,0-3.5-0.7-4.5-2.1c-0.9-1.4-1.4-2.9-1.4-5c0-3.1,0.9-4.8,2.1-6c1.1-1.1,2.3-1.6,3.8-1.6
			c1.8,0,2.8,0.7,3.9,1.5l-1.2,1.5c-1-0.8-1.6-1.1-2.7-1.1c-1.1,0-2.2,0.6-2.7,1.6c-0.5,1-0.8,2.6-0.8,4.6c0,3.2,1.2,4.9,3.5,4.9
			c1.1,0,2.2-0.5,3-1.5l1.2,1.4C381.6,128.6,380.3,129.2,378.5,129.2z"/>
		<path class="st0" d="M390.6,129.3c-1.8,0-3.8-0.5-5.2-1.4l0.9-1.6c1.4,0.9,2.9,1.3,4.5,1.3c1.7,0,2.9-0.9,2.9-2.4
			c0-1.3-0.7-2-2.3-2.3l-1.8-0.4c-2.3-0.5-3.6-1.9-3.6-3.9c0-2.6,2.1-4.3,5-4.3c1.5,0,3.1,0.5,4.3,1.1l-0.8,1.6
			c-1.3-0.6-2.3-1-3.6-1c-1.6,0-2.7,0.9-2.7,2.3c0,1.1,0.5,1.7,2,2l1.9,0.4c2.6,0.5,3.8,1.8,3.8,3.9
			C396,127.4,393.8,129.3,390.6,129.3z"/>
		<path class="st0" d="M257.9,161.6l-1.1-14.3c-0.1-1.2-0.1-3.2-0.1-3.3c-0.1,0.2-0.4,1.8-0.8,3l-4.2,14.5h-2l-3.9-13.8
			c-0.6-1.9-0.9-3.4-1-3.7c0,0.3-0.1,2.6-0.2,3.7l-1.1,13.9h-2.2l1.7-19.5h3.4l3.6,12.7c0.5,1.8,0.7,3.2,0.8,3.4
			c0-0.1,0.3-1.6,0.7-3.2l3.7-13h3.4l1.7,19.5H257.9z"/>
		<path class="st0" d="M274.2,162.2c-0.9-0.8-1.3-1.3-1.5-2.3c-1.1,1.4-2.6,2.2-4.5,2.2c-1.8,0-3.1-0.8-3.7-2
			c-0.3-0.5-0.4-1.3-0.4-2.1v-10.4l2.2-0.4v10.2c0,1.3,0.2,1.9,0.9,2.4c0.5,0.3,1.1,0.5,1.7,0.5c1.4,0,2.8-1,3.6-2.6v-10l2.2-0.4
			v10.3c0,1.8,0.3,2.5,1,3.2L274.2,162.2z M266.4,145.5c-0.8,0-1.5-0.7-1.5-1.5c0-0.8,0.7-1.4,1.4-1.4c0.8,0,1.5,0.7,1.5,1.4
			C267.8,144.8,267.2,145.5,266.4,145.5z M272.3,145.5c-0.8,0-1.5-0.7-1.5-1.5c0-0.8,0.7-1.4,1.4-1.4c0.8,0,1.5,0.7,1.5,1.4
			C273.7,144.8,273.1,145.5,272.3,145.5z"/>
		<path class="st0" d="M287.7,161.6V152c0-1.5-0.1-1.9-0.5-2.4c-0.3-0.4-0.9-0.6-1.6-0.6c-1.1,0-2.9,0.9-3.9,2v10.5h-2.2v-10.9
			c0-2-0.5-3-0.5-3l2.2-0.6c0,0,0.5,1.1,0.5,2.2c1.5-1.5,3-2.2,4.5-2.2c1.5,0,2.9,0.8,3.5,2.1c0.2,0.5,0.3,1.1,0.3,1.6v10.7H287.7z"
			/>
		<path class="st0" d="M298.6,162c-1.8,0-3.8-0.5-5.2-1.4l0.9-1.6c1.4,0.9,2.9,1.3,4.5,1.3c1.7,0,2.9-0.9,2.9-2.4
			c0-1.3-0.7-2-2.3-2.3l-1.8-0.4c-2.3-0.5-3.6-1.9-3.6-3.9c0-2.6,2.1-4.3,5-4.3c1.5,0,3.1,0.5,4.3,1.1l-0.8,1.6
			c-1.3-0.6-2.3-1-3.6-1c-1.6,0-2.7,0.9-2.7,2.3c0,1.1,0.5,1.7,2,2l1.9,0.4c2.6,0.5,3.8,1.8,3.8,3.9
			C303.9,160.1,301.8,162,298.6,162z"/>
		<path class="st0" d="M313.7,149.1h-3v9.1c0,1.6,0.4,2.1,1.8,2.1c0.6,0,1-0.1,1.4-0.3l0.3,1.4c-0.7,0.4-1.5,0.6-2.5,0.6
			c-0.7,0-1.3-0.1-1.8-0.4c-1-0.5-1.4-1.4-1.4-2.8v-9.7h-1.8v-1.7h1.8c0-1.4,0.2-3.6,0.2-3.6l2.3-0.5c0,0-0.3,2.2-0.3,4.1h3.6
			L313.7,149.1z"/>
		<path class="st0" d="M318.8,154.9v0.3c0,1.3,0.2,2.4,0.7,3.1c0.8,1.2,2.1,1.7,3.5,1.7c1.4,0,2.5-0.4,3.5-1.3l0.9,1.4
			c-1.3,1.1-3,1.8-4.8,1.8c-3.9,0-6.3-2.8-6.3-7.5c0-2.4,0.5-3.9,1.7-5.3c1.1-1.3,2.5-2,4.2-2c1.5,0,2.9,0.5,3.8,1.5
			c1.2,1.3,1.6,2.6,1.6,6v0.3H318.8z M324.6,150.1c-0.5-0.8-1.5-1.3-2.6-1.3c-2,0-3.2,1.5-3.3,4.4h6.5
			C325.2,151.7,325,150.7,324.6,150.1z"/>
		<path class="st0" d="M337.9,149.6c-0.1-0.1-0.4-0.1-0.6-0.1c-0.9,0-1.7,0.4-2.4,1c-0.7,0.7-0.8,1.1-0.8,2.2v8.9h-2.2v-10.9
			c0-2.1-0.5-3-0.5-3l2.2-0.6c0,0,0.5,1.1,0.5,2.3c1-1.4,2.5-2.4,4-2.4c0.4,0,0.8,0.1,0.8,0.1L337.9,149.6z"/>
		<path class="st0" d="M249.6,194.7c-2.4,0-4.5-0.9-6-2.4c-1.6-1.8-2.4-4.2-2.4-7.6c0-3.7,1-6.4,3-8.2c1.4-1.3,3.1-1.8,5.1-1.8
			c2.1,0,3.9,0.7,5.3,1.9l-1.1,1.4c-1.6-1.1-2.7-1.5-4.2-1.5c-2.3,0-4.1,1.1-4.9,3.3c-0.5,1.4-0.8,3.1-0.8,4.9
			c0,2.6,0.5,4.6,1.4,5.9s2.9,2.1,4.7,2.1c1.2,0,2.3-0.3,3.1-0.8V186h-3.9l-0.5-1.9h6.6v9.1C253.6,194.1,251.5,194.7,249.6,194.7z"
			/>
		<path class="st0" d="M265.5,182.3c-0.1-0.1-0.4-0.1-0.6-0.1c-0.9,0-1.7,0.4-2.4,1c-0.7,0.7-0.8,1.1-0.8,2.2v8.9h-2.2v-10.9
			c0-2.1-0.5-3-0.5-3l2.2-0.6c0,0,0.5,1.1,0.5,2.3c1-1.4,2.5-2.4,4-2.4c0.4,0,0.8,0.1,0.8,0.1L265.5,182.3z"/>
		<path class="st0" d="M278.4,194.9c-1-0.3-1.7-1.1-1.9-2.1c-1.4,1.4-2.5,1.9-4.1,1.9c-3.5,0-4.5-2.1-4.5-4c0-3.2,2.8-5.1,7.5-5.1
			c0.6,0,1,0,1,0v-1c0-1.3-0.1-1.8-0.5-2.2c-0.5-0.5-1-0.8-1.9-0.8c-1.6,0-3.6,0.9-4.5,1.7l-1.1-1.6c1.9-1.2,3.9-1.9,5.9-1.9
			c2,0,3.3,0.8,3.9,2.2c0.3,0.8,0.3,1.8,0.3,3.1l-0.1,4.7c-0.1,2.3,0.1,2.9,1.1,3.5L278.4,194.9z M275.1,187.1
			c-3.6,0-4.9,1.2-4.9,3.4c0,1.7,0.8,2.6,2.4,2.6c1.4,0,2.8-0.9,3.4-2.2l0.1-3.7C275.9,187.1,275.5,187.1,275.1,187.1z"/>
		<path class="st0" d="M292.2,194.4c0,0-0.3-0.7-0.3-1.4c-1,1.2-2.1,1.6-3.8,1.6c-3.7,0-5.8-2.6-5.8-7.2c0-3,1-5.2,2.9-6.6
			c0.9-0.6,1.7-0.9,2.7-0.9c1.6,0,3,0.7,3.8,1.8c0,0,0-1.2,0-2.2v-5.9l2.2,0.4v15.8c0,2.4,0.1,3.8,0.4,4.6H292.2z M291.8,183.2
			c-0.7-1-1.8-1.5-3.4-1.5c-1.1,0-2,0.5-2.6,1.5c-0.7,1.1-0.9,2.1-0.9,4.1c0,1.6,0.1,2.9,0.6,3.7c0.7,1.2,1.5,1.6,2.8,1.6
			c1.2,0,1.8-0.3,2.7-0.9c0.6-0.4,0.9-1,0.9-1V183.2z"/>
		<path class="st0" d="M308.6,195c-0.9-0.8-1.3-1.3-1.5-2.3c-1.1,1.4-2.6,2.2-4.5,2.2c-1.8,0-3.1-0.8-3.7-2
			c-0.3-0.5-0.4-1.3-0.4-2.1v-10.4l2.2-0.4v10.2c0,1.3,0.2,1.9,0.9,2.4c0.5,0.3,1.1,0.5,1.7,0.5c1.4,0,2.8-1,3.6-2.6v-10l2.2-0.4
			v10.3c0,1.8,0.3,2.5,1,3.2L308.6,195z"/>
		<path class="st0" d="M323.7,194.9c-1-0.3-1.7-1.1-1.9-2.1c-1.4,1.4-2.5,1.9-4.1,1.9c-3.5,0-4.5-2.1-4.5-4c0-3.2,2.8-5.1,7.5-5.1
			c0.6,0,1,0,1,0v-1c0-1.3-0.1-1.8-0.5-2.2c-0.5-0.5-1-0.8-1.9-0.8c-1.6,0-3.6,0.9-4.5,1.7l-1.1-1.6c1.9-1.2,3.9-1.9,5.9-1.9
			c2,0,3.3,0.8,3.9,2.2c0.3,0.8,0.3,1.8,0.3,3.1l-0.1,4.7c-0.1,2.3,0.1,2.9,1.1,3.5L323.7,194.9z M320.5,187.1
			c-3.6,0-4.9,1.2-4.9,3.4c0,1.7,0.8,2.6,2.4,2.6c1.4,0,2.8-0.9,3.4-2.2l0.1-3.7C321.2,187.1,320.9,187.1,320.5,187.1z"/>
		<path class="st0" d="M334,181.9h-3v9.1c0,1.6,0.4,2.1,1.8,2.1c0.6,0,1-0.1,1.4-0.3l0.3,1.4c-0.7,0.4-1.5,0.6-2.5,0.6
			c-0.7,0-1.3-0.1-1.8-0.4c-1-0.5-1.4-1.4-1.4-2.8v-9.7h-1.8v-1.7h1.8c0-1.4,0.2-3.6,0.2-3.6l2.3-0.5c0,0-0.3,2.2-0.3,4.1h3.6
			L334,181.9z"/>
		<path class="st0" d="M339.3,187.7v0.3c0,1.3,0.2,2.4,0.7,3.1c0.8,1.2,2.1,1.7,3.5,1.7c1.4,0,2.5-0.4,3.5-1.3l0.9,1.4
			c-1.3,1.1-3,1.8-4.8,1.8c-3.9,0-6.3-2.8-6.3-7.5c0-2.4,0.5-3.9,1.7-5.3c1.1-1.3,2.5-2,4.2-2c1.5,0,2.9,0.5,3.8,1.5
			c1.2,1.3,1.6,2.6,1.6,6v0.3H339.3z M345.1,182.8c-0.5-0.8-1.5-1.3-2.6-1.3c-2,0-3.2,1.5-3.3,4.4h6.5
			C345.7,184.4,345.5,183.5,345.1,182.8z"/>
		<path class="st0" d="M366.9,193.5c-1.3,0.8-2.6,1.2-4.4,1.2c-2.3,0-4.3-0.6-6.3-1.8l1-1.8c1.6,1.2,3.3,1.7,5.2,1.7
			c1.5,0,2.3-0.2,3.1-0.9c0.9-0.7,1.4-1.6,1.4-2.8c0-1.7-1.1-2.9-3.5-3.6l-2-0.6c-1.8-0.5-2.7-0.9-3.5-1.7c-0.8-0.9-1.2-1.9-1.2-3.2
			c0-3.3,2.5-5.6,6.3-5.6c2.1,0,4,0.6,5.9,1.9l-1,1.7c-1.9-1.2-3.1-1.6-4.7-1.6c-2.4,0-3.9,1.2-3.9,3.2c0,1.6,0.9,2.4,3.2,3.2
			l2.2,0.7c1.7,0.5,2.6,1.1,3.4,2c0.8,0.9,1.3,2.2,1.3,3.4C369.6,190.7,368.7,192.4,366.9,193.5z"/>
		<path class="st0" d="M378.4,194.7c-2,0-3.5-0.7-4.5-2.1c-0.9-1.4-1.4-2.9-1.4-5c0-3.1,0.9-4.8,2.1-6c1.1-1.1,2.3-1.6,3.8-1.6
			c1.8,0,2.8,0.7,3.9,1.5l-1.2,1.5c-1-0.8-1.6-1.1-2.7-1.1c-1.1,0-2.2,0.6-2.7,1.6c-0.5,1-0.8,2.6-0.8,4.6c0,3.2,1.2,4.9,3.5,4.9
			c1.1,0,2.2-0.5,3-1.5l1.2,1.4C381.4,194.1,380.1,194.7,378.4,194.7z"/>
		<path class="st0" d="M394.2,194.4v-9.8c0-1.1-0.1-1.7-0.5-2.1c-0.3-0.3-0.9-0.6-1.6-0.6c-1.4,0-2.9,0.9-4.1,2.4v10.1h-2.2v-17.4
			c0-1.8-0.4-2.9-0.4-2.9l2.2-0.4c0,0,0.4,1.2,0.4,3.4v3.3c0,0.9-0.1,1.9-0.1,1.9c1.3-1.2,2.9-2.2,4.7-2.2c1.7,0,3.2,0.9,3.6,2.2
			c0.2,0.6,0.2,1,0.2,2v10.1H394.2z"/>
		<path class="st0" d="M406,194.7c-3.9,0-6.1-2.9-6.1-7.5c0-4.6,2.3-7.4,6-7.4c2.4,0,3.9,1.1,4.9,2.5c0.9,1.3,1.3,3,1.3,5.3
			C412.1,192.2,409.5,194.7,406,194.7z M408.9,183.4c-0.6-1.3-1.8-1.8-3-1.8c-1.3,0-2.4,0.6-2.9,1.5c-0.5,0.9-0.7,2-0.7,3.7
			c0,2,0.3,3.8,0.9,4.6c0.5,0.9,1.6,1.4,2.9,1.4c1.5,0,2.6-0.8,3.1-2.1c0.3-0.9,0.4-1.7,0.4-3.1
			C409.5,185.7,409.3,184.4,408.9,183.4z"/>
		<path class="st0" d="M421,194.7c-3.9,0-6.1-2.9-6.1-7.5c0-4.6,2.3-7.4,6-7.4c2.4,0,3.9,1.1,4.9,2.5c0.9,1.3,1.3,3,1.3,5.3
			C427.1,192.2,424.6,194.7,421,194.7z M423.9,183.4c-0.6-1.3-1.8-1.8-3-1.8c-1.3,0-2.4,0.6-2.9,1.5c-0.5,0.9-0.7,2-0.7,3.7
			c0,2,0.3,3.8,0.9,4.6c0.5,0.9,1.6,1.4,2.9,1.4c1.5,0,2.6-0.8,3.1-2.1c0.3-0.9,0.4-1.7,0.4-3.1
			C424.6,185.7,424.4,184.4,423.9,183.4z"/>
		<path class="st0" d="M433,194.6c-0.7,0-1.2-0.2-1.7-0.6c-0.5-0.4-0.7-1-0.7-2v-15c0-1.8-0.3-2.9-0.3-2.9l2.2-0.4
			c0,0,0.4,1.2,0.4,3.4v14.5c0,1.1,0.2,1.4,0.8,1.4c0.1,0,0.3-0.1,0.3-0.1l0.5,1.4C433.8,194.6,433.6,194.6,433,194.6z"/>
	</g>
	<path class="st1" d="M284.3,95.4l-1.3-21c-0.2-3.3-0.4-6-0.4-10.4h-0.1c-0.6,4.4-1,7-1.8,9.8l-6.3,21.6h-11.3l-5.5-21
		c-0.7-2.9-1.3-5.8-1.7-10.4h-0.1c0,4.6-0.1,7.5-0.2,10.7l-1,20.7h-13.4l5.1-52h16.3l5.1,20.6c0.7,2.9,1.3,5.7,1.7,9.8h0.1
		c0.4-4,0.9-6.5,2-10.6l5.3-19.8h15.8l4.8,52H284.3z"/>
	<path class="st1" d="M344.9,95.4l-1.3-21c-0.2-3.3-0.4-6-0.4-10.4h-0.1c-0.6,4.4-1,7-1.8,9.8l-6.3,21.6h-11.3l-5.5-21
		c-0.7-2.9-1.3-5.8-1.7-10.4h-0.1c0,4.6-0.1,7.5-0.2,10.7l-1,20.7h-13.4l5.1-52h16.3l5.1,20.6c0.7,2.9,1.3,5.7,1.7,9.8h0.1
		c0.4-4,0.9-6.5,2-10.6l5.3-19.8h15.8l4.8,52H344.9z"/>
	<path class="st1" d="M396,57.4c-2.8-2.7-6.6-4-10.6-4c-7,0-9.8,4.8-9.8,16.5c0,10.4,3.1,15.4,9.2,15.4c1.7,0,3.4-0.1,4.8-0.7v-8.2
		h-6.3l-1.5-10.6H403v25.4c-6,3.7-12,5.1-18.7,5.1c-8.7,0-14.6-2.8-19-8.9c-3.5-4.9-4.9-9.9-4.9-17c0-11.1,4.4-20.7,13.1-25.1
		c3.9-2,7.2-2.7,11.9-2.7c6.8,0,13.1,2.2,18.1,6.6L396,57.4z"/>
	<path class="st1" d="M426.7,96.3c-7.8,0-14-1.9-19.2-4.7l4.7-10.4c3.7,2.2,9.3,4.2,14.6,4.2c5.2,0,7.3-1.9,7.3-4.8
		c0-2.3-1.6-3.4-5.2-4.3l-6.1-1.6c-7.5-1.9-12.7-6.1-12.7-15.1c0-10.3,8.5-17.2,20.1-17.2c7.2,0,14,1.9,18.6,5.1l-6.4,9.5
		c-3.5-2.3-8.1-3.7-11.7-3.7c-3.4,0-5.3,1.6-5.3,3.7c0,1.7,1.2,3.4,5.1,4.4l5.3,1.3c5.6,1.4,13.7,4,13.7,14.4
		C449.4,89.7,440.2,96.3,426.7,96.3z"/>
</g>
</svg>
